<svg xmlns="http://www.w3.org/2000/svg" xmlns:xlink="http://www.w3.org/1999/xlink" viewBox="0 0 64 64"><defs><style>.cls-1{fill:url(#linear-gradient);}.cls-2{fill:url(#linear-gradient-2);}.cls-3{fill:url(#linear-gradient-3);}.cls-4{fill:url(#linear-gradient-4);}.cls-5{fill:url(#linear-gradient-5);}.cls-6{fill:url(#linear-gradient-6);}.cls-7{fill:#eb7f58;}</style><linearGradient id="linear-gradient" x1="32" y1="52.19" x2="32" y2="11" gradientUnits="userSpaceOnUse"><stop offset="0" stop-color="#54a5ff"/><stop offset="1" stop-color="#8ad3fe"/></linearGradient><linearGradient id="linear-gradient-2" x1="18.27" y1="41.92" x2="26.08" y2="41.92" gradientTransform="translate(32.79 -4.3) rotate(40.81)" gradientUnits="userSpaceOnUse"><stop offset="0" stop-color="#fe9661"/><stop offset="1" stop-color="#ffb369"/></linearGradient><linearGradient id="linear-gradient-3" x1="11.78" y1="30.92" x2="18.57" y2="30.92" gradientTransform="translate(44.9 13.52) rotate(85.81)" xlink:href="#linear-gradient-2"/><linearGradient id="linear-gradient-4" x1="18.82" y1="20.92" x2="27.53" y2="20.92" gradientTransform="translate(9.71 -7.25) rotate(22.38)" xlink:href="#linear-gradient-2"/><linearGradient id="linear-gradient-5" x1="31.67" y1="18.92" x2="40.67" y2="18.92" gradientTransform="matrix(1, 0, 0, 1, 0, 0)" xlink:href="#linear-gradient-2"/><linearGradient id="linear-gradient-6" x1="49" y1="46" x2="49" y2="7" gradientTransform="matrix(1, 0, 0, 1, 0, 0)" xlink:href="#linear-gradient-2"/></defs><title>Art</title><g id="Art"><path class="cls-1" d="M32,11C18.19,11,7,20.4,7,32c0,9.32,7.23,17.22,17.23,20A6.12,6.12,0,0,0,32,46.1,6.1,6.1,0,0,1,38.1,40H50.75a6,6,0,0,0,6-4.85C59.06,21.77,46.57,11,32,11Zm5.5,25A4.5,4.5,0,1,1,42,31.5,4.49,4.49,0,0,1,37.5,36Z"/><ellipse class="cls-2" cx="22.17" cy="41.92" rx="3.39" ry="4.5" transform="translate(-22 24.68) rotate(-40.81)"/><ellipse class="cls-3" cx="15.17" cy="30.92" rx="4.5" ry="3.39" transform="translate(-16.77 43.79) rotate(-85.81)"/><ellipse class="cls-4" cx="23.17" cy="20.92" rx="4.5" ry="3.39" transform="translate(-6.22 10.4) rotate(-22.38)"/><ellipse class="cls-5" cx="36.17" cy="18.92" rx="4.5" ry="3.39"/><path class="cls-6" d="M49.08,46A2.93,2.93,0,0,1,46,42.92L47.94,8a1.06,1.06,0,0,1,2.12,0L52,42.92A2.92,2.92,0,0,1,49.08,46Z"/><path class="cls-7" d="M53,50c0,2.21-2,7-5,7,0-4-3-4.58-3-7a4,4,0,0,1,8,0Z"/></g></svg>